<svg width="4799" height="2320" xmlns="http://www.w3.org/2000/svg" xmlns:xlink="http://www.w3.org/1999/xlink" xml:space="preserve" overflow="hidden"><defs><clipPath id="clip0"><rect x="18" y="166" width="4799" height="2320"/></clipPath></defs><g clip-path="url(#clip0)" transform="translate(-18 -166)"><rect x="61.9999" y="1010" width="857" height="642" stroke="#000000" stroke-width="10.3125" stroke-miterlimit="8" fill="#FFFFFF"/><rect x="1037" y="1010" width="857" height="642" stroke="#000000" stroke-width="10.3125" stroke-miterlimit="8" fill="#FFFFFF"/><rect x="2012" y="1010" width="858" height="642" stroke="#000000" stroke-width="10.3125" stroke-miterlimit="8" fill="#FFFFFF"/><rect x="2988" y="477" width="857" height="643" stroke="#000000" stroke-width="10.3125" stroke-miterlimit="8" fill="#FFFFFF"/><rect x="2988" y="1512" width="857" height="642" stroke="#000000" stroke-width="10.3125" stroke-miterlimit="8" fill="#FFFFFF"/><rect x="285" y="1266" width="412" height="167" fill="#FFFFFF"/><text fill="#215F9A" font-family="Arial,Arial_MSFontService,sans-serif" font-weight="700" font-size="110" transform="matrix(1 0 0 1 329.867 1390)">@@@</text><rect x="1276" y="1266" width="379" height="167" fill="#FFFFFF"/><text fill="#215F9A" font-family="Arial,Arial_MSFontService,sans-serif" font-weight="700" font-size="110" transform="matrix(1 0 0 1 1349.5 1390)">RED</text><rect x="2252" y="1266" width="378" height="167" fill="#FFFFFF"/><text fill="#215F9A" font-family="Arial,Arial_MSFontService,sans-serif" font-weight="700" font-size="110" transform="matrix(1 0 0 1 2291.22 1390)">BLUE</text><rect x="1037" y="652" width="901" height="266" fill="#FFFFFF"/><text font-family="Arial,Arial_MSFontService,sans-serif" font-weight="400" font-size="110" transform="matrix(1 0 0 1 1138.96 775)">Practice Block</text><text font-family="Arial,Arial_MSFontService,sans-serif" font-weight="400" font-size="83" transform="matrix(1 0 0 1 1320.3 880)">[16 trials]</text><rect x="39.9999" y="657" width="901" height="267" fill="#FFFFFF"/><text font-family="Arial,Arial_MSFontService,sans-serif" font-weight="400" font-size="110" transform="matrix(1 0 0 1 126.195 781)">Learning Block</text><text font-family="Arial,Arial_MSFontService,sans-serif" font-weight="400" font-size="83" transform="matrix(1 0 0 1 323.278 886)">[32 trials]</text><rect x="1969" y="652" width="901" height="266" fill="#FFFFFF"/><text font-family="Arial,Arial_MSFontService,sans-serif" font-weight="400" font-size="110" transform="matrix(1 0 0 1 2058.04 775)">Baseline Block</text><text font-family="Arial,Arial_MSFontService,sans-serif" font-weight="400" font-size="83" transform="matrix(1 0 0 1 2229.06 880)">[144 trials]</text><rect x="17.9999" y="1689" width="923" height="189" fill="#FFFFFF"/><text font-family="Arial,Arial_MSFontService,sans-serif" font-weight="400" font-size="64" transform="matrix(1 0 0 1 74.2594 1768)">“Respond to the </text><text font-family="Arial,Arial_MSFontService,sans-serif" font-weight="700" font-size="64" transform="matrix(1 0 0 1 546.916 1768)">ink color </text><text font-family="Arial,Arial_MSFontService,sans-serif" font-weight="400" font-size="64" transform="matrix(1 0 0 1 831.082 1768)">of </text><text font-family="Arial,Arial_MSFontService,sans-serif" font-weight="400" font-size="64" transform="matrix(1 0 0 1 305.145 1845)">the symbol.”</text><rect x="2937" y="205" width="953" height="167" fill="#FFFFFF"/><text font-family="Arial,Arial_MSFontService,sans-serif" font-weight="400" font-size="110" transform="matrix(1 0 0 1 2969.92 329)">Alternating Blocks</text><rect x="3865" y="553" width="793" height="266" fill="#FFFFFF"/><text font-family="Arial,Arial_MSFontService,sans-serif" font-weight="400" font-size="110" transform="matrix(1 0 0 1 3922.16 676)">Reward Block</text><text font-family="Arial,Arial_MSFontService,sans-serif" font-weight="400" font-size="83" transform="matrix(1 0 0 1 4071.69 781)">[144 trials]</text><path d="M1466.5 2376.5 3479.26 2376.5" stroke="#000000" stroke-width="6.875" stroke-miterlimit="8" fill="#FFFFFF" fill-rule="evenodd"/><path d="M0 0 0.000360892 101.044" stroke="#000000" stroke-width="6.875" stroke-miterlimit="8" fill="#FFFFFF" fill-rule="evenodd" transform="matrix(1 0 0 -1 1468.5 2379.54)"/><path d="M0 0 0.000360892 101.044" stroke="#000000" stroke-width="6.875" stroke-miterlimit="8" fill="#FFFFFF" fill-rule="evenodd" transform="matrix(1 0 0 -1 3477.5 2377.54)"/><rect x="2027" y="2276" width="828" height="189" fill="#FFFFFF"/><text font-family="Arial,Arial_MSFontService,sans-serif" font-weight="400" font-size="64" transform="matrix(1 0 0 1 2071.51 2355)">“Respond to the </text><text font-family="Arial,Arial_MSFontService,sans-serif" font-weight="700" font-size="64" transform="matrix(1 0 0 1 2544.16 2355)">ink color </text><text font-family="Arial,Arial_MSFontService,sans-serif" font-weight="400" font-size="64" transform="matrix(1 0 0 1 2183.52 2432)">of the color</text><text font-family="Arial,Arial_MSFontService,sans-serif" font-weight="400" font-size="64" transform="matrix(1 0 0 1 2499.77 2432)">-</text><text font-family="Arial,Arial_MSFontService,sans-serif" font-weight="400" font-size="64" transform="matrix(1 0 0 1 2520.97 2432)">word.”</text><rect x="3864" y="1569" width="922" height="266" fill="#FFFFFF"/><text font-family="Arial,Arial_MSFontService,sans-serif" font-weight="400" font-size="110" transform="matrix(1 0 0 1 3899.5 1692)">No Reward Block</text><text font-family="Arial,Arial_MSFontService,sans-serif" font-weight="400" font-size="83" transform="matrix(1 0 0 1 4157.58 1797)">[72 trials]</text><path d="M3550.5 1447.75 3583.25 1410.65 3583.25 1427.02C3635.49 1412.93 3674.12 1366.8 3680.57 1310.81 3688.42 1378.94 3646.82 1442.62 3583.25 1459.78L3583.25 1476.15Z" fill="#FFFFFF" fill-rule="evenodd"/><path d="M3681.51 1327.19C3681.51 1251.56 3622.85 1190.25 3550.5 1190.25L3550.5 1157.5C3622.85 1157.5 3681.51 1218.81 3681.51 1294.44Z" fill="#CDCDCD" fill-rule="evenodd"/><path d="M3681.51 1327.19C3681.51 1251.56 3622.85 1190.25 3550.5 1190.25L3550.5 1157.5C3622.85 1157.5 3681.51 1218.81 3681.51 1294.44L3681.51 1327.19C3681.51 1389.63 3641.09 1444.17 3583.25 1459.78L3583.25 1476.15 3550.5 1447.75 3583.25 1410.65 3583.25 1427.02C3635.49 1412.93 3674.12 1366.8 3680.57 1310.81" stroke="#000000" stroke-width="6.875" stroke-miterlimit="8" fill="none" fill-rule="evenodd"/><path d="M3302.5 1179.25 3269.75 1216.35 3269.75 1199.98C3217.51 1214.07 3178.88 1260.2 3172.43 1316.19 3164.58 1248.06 3206.18 1184.38 3269.75 1167.22L3269.75 1150.85Z" fill="#FFFFFF" fill-rule="evenodd"/><path d="M3171.49 1299.81C3171.49 1375.44 3230.15 1436.75 3302.5 1436.75L3302.5 1469.5C3230.15 1469.5 3171.49 1408.19 3171.49 1332.56Z" fill="#CDCDCD" fill-rule="evenodd"/><path d="M3171.49 1299.81C3171.49 1375.44 3230.15 1436.75 3302.5 1436.75L3302.5 1469.5C3230.15 1469.5 3171.49 1408.19 3171.49 1332.56L3171.49 1299.81C3171.49 1237.37 3211.91 1182.83 3269.75 1167.22L3269.75 1150.85 3302.5 1179.25 3269.75 1216.35 3269.75 1199.98C3217.51 1214.07 3178.88 1260.2 3172.43 1316.19" stroke="#000000" stroke-width="6.875" stroke-miterlimit="8" fill="none" fill-rule="evenodd"/><path d="M510.5 212.915 2489.91 212.915 2489.91 172.5 2733.5 289.5 2489.91 406.5 2489.91 366.085 510.5 366.085Z" stroke="#000000" stroke-width="6.875" stroke-miterlimit="8" fill="#FFFFFF" fill-rule="evenodd"/><text font-family="Arial,Arial_MSFontService,sans-serif" font-weight="400" font-size="110" transform="matrix(1 0 0 1 999.742 330)">Experiment Sequence</text><rect x="3863" y="821" width="828" height="189" fill="#FFFFFF"/><text font-family="Arial,Arial_MSFontService,sans-serif" font-weight="400" font-size="64" transform="matrix(1 0 0 1 3910.2 899)">“Trials with </text><text font-family="Arial,Arial_MSFontService,sans-serif" font-weight="700" font-size="64" transform="matrix(1 0 0 1 4234.96 899)">[color] </text><text font-family="Arial,Arial_MSFontService,sans-serif" font-weight="400" font-size="64" transform="matrix(1 0 0 1 4451.52 899)">ink are </text><text font-family="Arial,Arial_MSFontService,sans-serif" font-weight="400" font-size="64" transform="matrix(1 0 0 1 4124.15 976)">rewarded.”</text><rect x="3911" y="1833" width="828" height="111" fill="#FFFFFF"/><text font-family="Arial,Arial_MSFontService,sans-serif" font-weight="400" font-size="64" transform="matrix(1 0 0 1 3980.28 1912)">“No trials are rewarded.”</text><rect x="3248" y="1243" width="361" height="123" fill="#FFFFFF"/><text font-family="Arial,Arial_MSFontService,sans-serif" font-weight="400" font-size="73" transform="matrix(1 0 0 1 3287.94 1331)">4 Cycles</text><rect x="3226" y="706" width="378" height="167" fill="#FFFFFF"/><text fill="#FF0000" font-family="Arial,Arial_MSFontService,sans-serif" font-weight="700" font-size="110" transform="matrix(1 0 0 1 3265.2 830)">BLUE</text><rect x="3203" y="1750" width="469" height="167" fill="#FFFFFF"/><text fill="#FF0000" font-family="Arial,Arial_MSFontService,sans-serif" font-weight="700" font-size="110" transform="matrix(1 0 0 1 3241.95 1873)">GREEN</text></g></svg>